<svg width="37" height="36" viewBox="0 0 37 36" fill="none" xmlns="http://www.w3.org/2000/svg">
<circle cx="18.5" cy="18" r="18" fill="white"/>
<g clip-path="url(#clip0_145_142)">
<path d="M17.4681 8.69352C18.527 8.17353 19.5859 7.65543 20.6429 7.13355C21.0749 6.92044 21.0891 6.92423 21.0891 7.42717C21.0891 13.3829 21.0891 19.3386 21.0891 25.2943C21.0891 25.909 21.0853 26.5237 21.091 27.1375C21.0928 27.3572 21.0597 27.5097 20.8191 27.6177C19.7005 28.1178 18.5933 28.6444 17.4823 29.1606C17.2853 28.9522 17.3203 28.687 17.3326 28.4427C17.4169 26.7927 17.4444 25.1428 17.4406 23.4909C17.4302 18.7305 17.4368 13.9701 17.4378 9.20972C17.4378 9.03734 17.4103 8.86306 17.4662 8.69352H17.4681Z" fill="#FE7800"/>
<path d="M17.4681 8.69351C17.4643 11.5615 17.4586 14.4295 17.4577 17.2965C17.4558 21.0473 17.4577 24.7971 17.4596 28.5478C17.4596 28.7524 17.4747 28.957 17.4832 29.1606C16.8316 29.2231 16.197 29.0792 15.57 28.9579C13.5629 28.5696 11.6459 27.9246 9.92871 26.7795C8.26645 25.6703 6.97074 24.2828 6.5843 22.235C6.34846 20.9857 6.61934 19.815 7.26152 18.7447C8.37821 16.8836 10.0869 15.729 12.038 14.904C13.4332 14.3139 14.8928 13.936 16.3949 13.7144C16.7369 13.6642 16.8231 13.7608 16.8183 14.0658C16.8117 14.5384 16.788 15.0139 16.825 15.4846C16.8562 15.8881 16.6886 16.0416 16.3182 16.1164C14.8691 16.409 13.5052 16.9205 12.3108 17.8127C11.3741 18.5127 10.5927 19.3443 10.3038 20.5235C9.96849 21.8959 10.3852 23.077 11.3087 24.0914C12.6717 25.5889 14.4523 26.3097 16.3798 26.716C17.3857 26.9282 17.3914 26.9026 17.3914 25.8863C17.3914 20.335 17.3914 14.7837 17.3951 9.23244C17.3951 9.05343 17.3156 8.85453 17.4681 8.69351Z" fill="#ADAEB2"/>
<path d="M23.5867 18.3365C24.0593 18.0761 24.5339 17.8146 25.0093 17.5532C25.1202 17.4926 25.2717 17.4396 25.2764 17.3108C25.2821 17.1649 25.1088 17.1431 25.0027 17.0882C24.1162 16.6307 23.1813 16.3068 22.2029 16.1211C21.8307 16.0501 21.61 15.927 21.6498 15.4818C21.6933 14.9969 21.6611 14.5053 21.6602 14.0165C21.6602 13.758 21.7454 13.6623 22.0362 13.7059C24.0423 14.008 25.9707 14.5479 27.7533 15.5405C28.0421 15.7015 28.2732 15.7442 28.5678 15.5292C28.8965 15.2895 29.2782 15.1247 29.6324 14.9201C29.891 14.7705 30.0416 14.7335 30.0747 15.1313C30.1998 16.6345 30.3513 18.1348 30.4981 19.636C30.5398 20.0613 30.2386 19.9145 30.0653 19.8775C28.7894 19.6067 27.5184 19.3159 26.2454 19.0327C25.4337 18.8518 24.621 18.6737 23.8083 18.4956C23.7316 18.4786 23.6521 18.4691 23.5877 18.3365H23.5867Z" fill="#ADAEB2"/>
</g>
<defs>
<clipPath id="clip0_145_142">
<rect width="24" height="22.1767" fill="white" transform="translate(6.5 7)"/>
</clipPath>
</defs>
</svg>
