<svg width="37" height="36" viewBox="0 0 37 36" fill="none" xmlns="http://www.w3.org/2000/svg">
<circle cx="18.5" cy="18" r="18" fill="white"/>
<g clip-path="url(#clip0_145_154)">
<path d="M17.9821 15.4823C17.8925 15.3696 17.8102 15.2512 17.7206 15.139C17.6079 14.9985 17.6367 15.0206 17.523 15.1184C16.9364 15.6227 16.361 16.1399 15.7888 16.6602C15.214 17.1831 14.6422 17.709 14.0715 18.2354C13.8904 18.4022 13.7169 18.5771 13.5373 18.7454C13.4905 18.7892 13.4802 18.8298 13.5049 18.8885C13.5404 18.9739 13.5687 19.0624 13.6006 19.1494C13.6809 19.3696 13.7375 19.5956 13.7447 19.8307C13.7483 19.9522 13.7504 20.0741 13.7391 20.1946C13.7293 20.3006 13.7663 20.3726 13.8513 20.4282C13.8698 20.4406 13.8863 20.456 13.9037 20.4699C14.0952 20.6202 14.2969 20.7555 14.5007 20.8878C15.3405 21.4322 16.203 21.9391 17.0681 22.4414C17.2698 22.5587 17.4705 22.6781 17.6805 22.7805C17.735 22.8073 17.7911 22.8314 17.8483 22.8505C17.9388 22.8803 17.9646 22.8639 17.9785 22.7723C17.9872 22.7157 17.9929 22.658 17.9975 22.6009C18.0289 22.1928 18.0294 21.7832 18.033 21.3741C18.0402 20.5749 18.0351 19.7757 18.0351 18.976H18.0392C18.0392 17.8695 18.0387 16.7636 18.0407 15.6572C18.0407 15.5893 18.0243 15.5347 17.9826 15.4817L17.9821 15.4823Z" fill="#00C1F8"/>
<path d="M20.9946 16.4955C20.6426 16.0854 20.2916 15.6747 19.9165 15.2852C19.8388 15.2044 19.7585 15.1267 19.6705 15.0567C19.6309 15.0253 19.5917 15.0191 19.547 15.0448C19.4914 15.0767 19.4343 15.1051 19.3787 15.137C19.1991 15.2414 19.0344 15.3706 18.8548 15.4745C18.7488 15.5363 18.7221 15.6109 18.7231 15.7288C18.7344 16.8161 18.7385 17.9035 18.7447 18.9909C18.7468 18.9909 18.7483 18.9909 18.7504 18.9909C18.7504 19.33 18.7473 19.6692 18.7509 20.0078C18.7596 20.8389 18.7576 21.6705 18.8023 22.5011C18.8085 22.6127 18.8167 22.7244 18.8425 22.8335C18.8605 22.9102 18.8651 22.9122 18.9372 22.8721C19.0015 22.8366 19.0653 22.8001 19.1281 22.7615C20.2525 22.0631 21.3744 21.3597 22.4808 20.6325C22.6357 20.5306 22.7854 20.421 22.9331 20.3088C23.0196 20.2429 23.0577 20.1627 23.0659 20.0577C23.0901 19.7325 23.0993 19.4067 23.1107 19.0804C23.1127 19.0218 23.0947 18.9785 23.0572 18.9343C22.3712 18.1202 21.6888 17.3024 20.9951 16.4945L20.9946 16.4955Z" fill="#00C1F8"/>
<path d="M30.2612 20.157C29.953 19.7659 29.6313 19.3856 29.3154 19.0007C29.0195 18.6404 28.7205 18.2828 28.422 17.9246C28.1565 17.6055 27.8925 17.2855 27.6264 16.9664C27.3521 16.6381 27.0789 16.3087 26.8046 15.9804C26.5323 15.6547 26.2601 15.3289 25.9884 15.0026C25.7743 14.7448 25.5577 14.4896 25.3436 14.2317C25.1089 13.9492 24.8758 13.6662 24.6381 13.3868C24.3777 13.0806 24.1162 12.7744 23.8594 12.4646C23.5476 12.0884 23.2316 11.7163 22.9198 11.3401C22.6444 11.0082 22.365 10.6799 22.0897 10.3485C21.7856 9.98259 21.4809 9.61721 21.1757 9.25184C20.9318 8.96057 20.6853 8.67136 20.444 8.37803C20.1722 8.04764 19.8944 7.72292 19.6226 7.39254C19.3895 7.10899 19.1549 6.82698 18.9202 6.54498C18.7874 6.38545 18.6567 6.22437 18.5245 6.06484C18.4483 5.97324 18.3768 5.9789 18.3083 6.07359C18.1884 6.23929 18.0562 6.39471 17.926 6.55218C17.6676 6.86455 17.4088 7.17641 17.1499 7.48775C16.8643 7.83151 16.5741 8.17115 16.2905 8.51594C16.0471 8.81184 15.798 9.1026 15.5536 9.39747C15.3128 9.6872 15.0699 9.97538 14.827 10.2636C14.5985 10.5343 14.37 10.8055 14.142 11.0767C13.8976 11.3674 13.6547 11.6597 13.4087 11.9494C13.1812 12.217 12.9553 12.4857 12.7294 12.7548C12.4479 13.0893 12.1695 13.4269 11.8875 13.7609C11.6961 13.9873 11.502 14.2122 11.3122 14.4402C11.0281 14.7808 10.7425 15.12 10.4558 15.4586C10.1651 15.8023 9.87484 16.1466 9.58511 16.4909C9.26451 16.8722 8.94442 17.2541 8.62382 17.6349C8.37526 17.9308 8.1267 18.2262 7.87814 18.5226C7.56011 18.9019 7.23899 19.278 6.92714 19.6625C6.78099 19.8426 6.60911 20.0026 6.50104 20.2121V20.2311C6.52574 20.2635 6.53397 20.3042 6.56691 20.3345C6.6935 20.4514 6.82473 20.5641 6.9575 20.6737C7.35375 21.001 7.74794 21.3303 8.14368 21.6586C8.70615 22.1254 9.27171 22.5885 9.83624 23.0527C10.2824 23.4196 10.7291 23.7861 11.1773 24.1504C11.6353 24.523 12.0923 24.8971 12.5513 25.2681C12.9558 25.5954 13.3593 25.9238 13.7617 26.2536C14.196 26.6092 14.6309 26.9653 15.0663 27.3199C15.4718 27.6503 15.8778 27.9807 16.2823 28.3116C16.5931 28.5663 16.906 28.8184 17.2153 29.0747C17.4782 29.2924 17.7433 29.5075 18.0073 29.7242C18.1272 29.8225 18.2332 29.9424 18.384 29.999H18.4416C18.5121 29.9784 18.5805 29.9563 18.6382 29.9069C18.9922 29.6032 19.3607 29.3176 19.7199 29.0207C20.1239 28.6872 20.532 28.3589 20.938 28.0285C21.3167 27.7198 21.6976 27.4141 22.0758 27.1043C22.5153 26.744 22.9568 26.3859 23.3978 26.0272C23.7498 25.7411 24.1018 25.456 24.4523 25.1683C24.8326 24.857 25.2129 24.5456 25.5942 24.2358C25.9112 23.9785 26.2282 23.7207 26.5442 23.4618C26.9492 23.1299 27.3547 22.7995 27.7597 22.4681C28.1199 22.1727 28.4832 21.8815 28.843 21.5851C29.301 21.2078 29.7626 20.8347 30.217 20.4529C30.2602 20.4164 30.2962 20.3803 30.3132 20.3263C30.3168 20.2635 30.3009 20.2059 30.2617 20.1565L30.2612 20.157ZM26.5509 20.2697C26.3857 20.7658 26.064 21.1332 25.6132 21.391C25.4316 21.495 25.2309 21.5341 25.0261 21.5511C24.8856 21.5624 24.7451 21.5588 24.6041 21.548C24.3921 21.532 24.2022 21.4502 24.0174 21.3524C23.913 21.2969 23.8111 21.2361 23.7015 21.1914C23.651 21.1708 23.6001 21.1533 23.5491 21.1342C23.4493 21.0967 23.3598 21.1111 23.2676 21.1687C22.9825 21.3463 22.7031 21.5326 22.4257 21.7219C21.7969 22.1506 21.1665 22.5777 20.5561 23.0327C20.446 23.115 20.3369 23.1984 20.2371 23.2941C20.1203 23.4058 20.0848 23.5334 20.1409 23.6857C20.1527 23.7186 20.162 23.7531 20.1764 23.785C20.3153 24.0907 20.3421 24.4108 20.3081 24.7412C20.2752 25.0633 20.1609 25.3479 19.9499 25.5929C19.7451 25.8306 19.5094 26.0334 19.2192 26.1569C18.6233 26.4106 18.0541 26.3704 17.5251 25.9757C17.3681 25.8584 17.2245 25.7272 17.101 25.5748C16.9183 25.35 16.817 25.0927 16.7866 24.8055C16.7413 24.3717 16.8159 23.9595 17.0053 23.5668C17.0455 23.4835 17.083 23.3985 17.1165 23.3121C17.1479 23.2323 17.1396 23.2056 17.0681 23.1587C16.9878 23.1062 16.9039 23.0594 16.8206 23.0121C16.0553 22.5788 15.2803 22.164 14.5074 21.7451C14.1446 21.5485 13.7808 21.355 13.4205 21.1543C13.3341 21.1059 13.2594 21.1075 13.1756 21.1466C13.0737 21.1939 12.9795 21.2542 12.8828 21.3102C12.6795 21.4286 12.4654 21.5166 12.2328 21.5598C11.7887 21.6417 11.3816 21.5526 11.0106 21.2979C10.8063 21.1574 10.6323 20.9835 10.4805 20.7874C10.3354 20.6006 10.2557 20.3881 10.2263 20.1549C10.2114 20.0376 10.2026 19.9198 10.2057 19.8014C10.2016 19.6733 10.2135 19.5456 10.2304 19.419C10.2659 19.155 10.3761 18.925 10.5474 18.7223C10.7631 18.4665 11.0157 18.2601 11.3302 18.1371C11.7249 17.9828 12.1222 17.9838 12.5225 18.1135C12.5832 18.133 12.6445 18.1516 12.7057 18.1701C12.7978 18.1974 12.8802 18.1819 12.9584 18.1233C13.1431 17.9853 13.3135 17.8299 13.4854 17.6771C14.2774 16.97 15.059 16.2516 15.8366 15.5281C16.1994 15.1905 16.5576 14.8472 16.9173 14.5066C16.976 14.451 16.9755 14.4505 16.941 14.3764C16.8478 14.1767 16.7387 13.9837 16.6744 13.7717C16.4639 13.0749 16.57 12.4373 17.047 11.8769C17.2245 11.6685 17.4402 11.5022 17.6846 11.3762C17.8575 11.2866 18.0433 11.2403 18.2352 11.2233C18.4838 11.2012 18.7334 11.1899 18.9799 11.2454C19.6051 11.3875 20.0523 11.7565 20.3256 12.3308C20.5592 12.8212 20.5778 13.3276 20.391 13.8396C20.358 13.9297 20.3271 14.0202 20.2952 14.1108C20.269 14.1849 20.2793 14.2544 20.3174 14.3228C20.3673 14.4129 20.4275 14.4952 20.4913 14.5755C21.0435 15.2723 21.6126 15.9552 22.1828 16.637C22.5436 17.0688 22.9095 17.4965 23.2743 17.9256C23.3695 18.0378 23.475 18.1407 23.5918 18.2313C23.6438 18.2715 23.6948 18.2818 23.7612 18.2648C23.9382 18.22 24.107 18.1505 24.2814 18.0985C24.9808 17.8896 25.603 18.0244 26.1309 18.5349C26.3435 18.7403 26.4948 18.9893 26.5812 19.2729C26.6836 19.6079 26.6605 19.9429 26.5509 20.2723V20.2697Z" fill="#00C1F8"/>
</g>
<defs>
<clipPath id="clip0_145_154">
<rect width="23.8132" height="24" fill="white" transform="translate(6.5 6)"/>
</clipPath>
</defs>
</svg>
