<svg width="36" height="36" viewBox="0 0 36 36" fill="none" xmlns="http://www.w3.org/2000/svg">
<circle cx="18" cy="18" r="18" fill="white"/>
<g clip-path="url(#clip0_145_149)">
<path d="M29.745 18.27C29.745 17.48 29.675 16.73 29.555 16H18.255V20.51H24.725C24.435 21.99 23.585 23.24 22.325 24.09V27.09H26.185C28.445 25 29.745 21.92 29.745 18.27Z" fill="#4285F4"/>
<path d="M18.255 30C21.495 30 24.205 28.92 26.185 27.09L22.325 24.09C21.245 24.81 19.875 25.25 18.255 25.25C15.125 25.25 12.475 23.14 11.525 20.29H7.54501V23.38C9.51501 27.3 13.565 30 18.255 30Z" fill="#34A853"/>
<path d="M11.525 20.29C11.275 19.57 11.145 18.8 11.145 18C11.145 17.2 11.285 16.43 11.525 15.71V12.62H7.545C6.725 14.24 6.255 16.06 6.255 18C6.255 19.94 6.725 21.76 7.545 23.38L11.525 20.29Z" fill="#FBBC05"/>
<path d="M18.255 10.75C20.025 10.75 21.605 11.36 22.855 12.55L26.275 9.13C24.205 7.19 21.495 6 18.255 6C13.565 6 9.51501 8.7 7.54501 12.62L11.525 15.71C12.475 12.86 15.125 10.75 18.255 10.75Z" fill="#EA4335"/>
</g>
<defs>
<clipPath id="clip0_145_149">
<rect width="24" height="24" fill="white" transform="translate(6 6)"/>
</clipPath>
</defs>
</svg>
